<svg width="70" height="71" viewBox="0 0 70 71" fill="none" xmlns="http://www.w3.org/2000/svg">
<path d="M64 35C64 51.5685 50.5685 65 34 65C17.4315 65 4 51.5685 4 35C4 18.4315 17.4315 5 34 5C50.5685 5 64 18.4315 64 35Z" fill="white"></path>
<path d="M34.6987 0C15.5366 0 0 15.8237 0 35.353C0 54.8823 15.5366 70.6994 34.6987 70.6994C53.8608 70.6994 69.3974 54.869 69.3974 35.353C69.3974 15.8371 53.8608 0 34.6987 0ZM48.9601 42.8376L52.3185 52.2584C52.5121 52.7925 51.9847 53.3066 51.4572 53.1063L42.2033 49.6278C41.8762 49.5076 41.5089 49.6545 41.362 49.975L35.313 63.0613C35.0726 63.5754 34.3382 63.5754 34.0978 63.0613L28.0421 49.9616C27.8952 49.6478 27.528 49.4942 27.2008 49.6144L17.8534 53.073C17.3193 53.2733 16.7985 52.7525 16.9922 52.2183L20.3906 42.8242C20.5108 42.4971 20.3572 42.1365 20.0434 41.9897L6.99049 35.9606C6.47638 35.7203 6.47638 34.9858 6.99049 34.7455L20.0501 28.7031C20.3706 28.5562 20.5174 28.189 20.3973 27.8618L16.892 18.5612C16.6917 18.027 17.2058 17.5063 17.7399 17.6932L27.2208 21.0583C27.548 21.1718 27.9085 21.0249 28.0487 20.7111L34.0978 7.63812C34.3382 7.12402 35.0726 7.12402 35.313 7.63812L41.3487 20.6977C41.4956 21.0115 41.8561 21.1651 42.1833 21.0449L51.564 17.6465C52.0982 17.4528 52.6123 17.9736 52.4186 18.5078L48.9668 27.8484C48.8466 28.1756 49.0002 28.5428 49.314 28.683L62.4203 34.7455C62.9344 34.9858 62.9344 35.7203 62.4203 35.9606L49.314 42.0164C49.0002 42.1633 48.8466 42.5238 48.9668 42.8443L48.9601 42.8376Z" fill="#000957"></path>
</svg>