<svg width="199" height="71" viewBox="0 0 199 71" fill="none" xmlns="http://www.w3.org/2000/svg">
<path d="M35.2303 0C16.0682 0 0.531555 15.8237 0.531555 35.353C0.531555 54.8823 16.0682 70.6994 35.2303 70.6994C54.3924 70.6994 69.929 54.869 69.929 35.353C69.929 15.8371 54.3924 0 35.2303 0ZM49.4917 42.8376L52.85 52.2584C53.0437 52.7925 52.5162 53.3066 51.9888 53.1063L42.7349 49.6278C42.4077 49.5076 42.0405 49.6545 41.8936 49.975L35.8445 63.0613C35.6042 63.5754 34.8697 63.5754 34.6294 63.0613L28.5736 49.9616C28.4267 49.6478 28.0595 49.4942 27.7324 49.6144L18.385 53.073C17.8509 53.2733 17.3301 52.7525 17.5237 52.2183L20.9221 42.8242C21.0423 42.4971 20.8888 42.1365 20.575 41.9897L7.52204 35.9606C7.00794 35.7203 7.00794 34.9858 7.52204 34.7455L20.5816 28.7031C20.9021 28.5562 21.049 28.189 20.9288 27.8618L17.4236 18.5612C17.2233 18.027 17.7374 17.5063 18.2715 17.6932L27.7524 21.0583C28.0795 21.1718 28.4401 21.0249 28.5803 20.7111L34.6294 7.63812C34.8697 7.12402 35.6042 7.12402 35.8445 7.63812L41.8803 20.6977C42.0271 21.0115 42.3877 21.1651 42.7148 21.0449L52.0956 17.6465C52.6297 17.4528 53.1438 17.9736 52.9502 18.5078L49.4983 27.8484C49.3782 28.1756 49.5317 28.5428 49.8455 28.683L62.9519 34.7455C63.466 34.9858 63.466 35.7203 62.9519 35.9606L49.8455 42.0164C49.5317 42.1633 49.3782 42.5238 49.4983 42.8443L49.4917 42.8376Z" fill="black"></path>
<path d="M92.1076 13.1498C91.2463 12.3219 89.9577 11.8679 88.8427 11.8679C86.0919 11.8679 84.4228 13.9577 84.4228 16.6016C84.4228 18.7115 85.6513 20.8947 88.8427 20.8947C89.8509 20.8947 90.7322 20.6744 91.7404 19.8665V17.5898H88.4555V15.4265H93.9571V20.8413C92.6885 22.2902 91.0928 23.1515 88.836 23.1515C84.0088 23.1515 82.0459 19.98 82.0459 16.6016C82.0459 12.9896 84.3026 9.64453 88.836 9.64453C90.5586 9.64453 92.2879 10.3055 93.6099 11.6075L92.1076 13.1498Z" fill="black"></path>
<path d="M99.8326 10.0117V20.6143H106.436V22.851H97.4089V10.0117H99.8326Z" fill="black"></path>
<path d="M121.852 16.5081C121.819 19.8264 119.776 23.1514 115.262 23.1514C110.749 23.1514 108.659 19.9065 108.659 16.5281C108.659 13.1497 110.822 9.75793 115.262 9.75793C119.702 9.75793 121.886 13.1497 121.852 16.5081ZM111.043 16.5615C111.096 18.6713 112.238 20.928 115.262 20.928C118.287 20.928 119.429 18.6513 119.462 16.5414C119.495 14.3782 118.287 11.9546 115.262 11.9546C112.238 11.9546 110.989 14.3982 111.043 16.5615Z" fill="black"></path>
<path d="M135.533 13.7373C135.533 14.7255 135.059 15.6802 133.864 16.2144C135.366 16.675 135.92 18.2708 135.92 19.0787C135.92 21.943 133.77 22.8577 131.113 22.8577H125.024V10.0117H131.113C133.643 10.0117 135.533 11.1468 135.533 13.7373ZM127.407 15.1661H131.113C132.635 15.1661 133.129 14.5252 133.129 13.7907C133.129 13.2032 132.655 12.215 131.113 12.215H127.407V15.1661ZM127.407 20.5943H131.113C132.101 20.5943 133.516 20.2671 133.516 19.0519C133.516 17.8368 132.101 17.2893 131.113 17.2893H127.407V20.5943Z" fill="black"></path>
<path d="M148.212 20.434H141.495L140.393 22.8577H137.769L143.531 10.0117H146.175L151.937 22.8577H149.293L148.212 20.434ZM144.853 12.7091L142.47 18.1773H147.244L144.86 12.7091H144.853Z" fill="black"></path>
<path d="M157.112 10.0117V20.6143H163.715V22.851H154.688V10.0117H157.112Z" fill="black"></path>
<path d="M93.8903 40.1703C92.5683 41.4722 90.8658 42.0798 89.0097 42.0798C84.2358 42.0798 82.2195 38.7949 82.1994 35.4566C82.1794 32.0982 84.3627 28.6864 89.0097 28.6864C90.7523 28.6864 92.4014 29.3474 93.7234 30.6493L92.1076 32.2117C91.2664 31.3838 90.1247 31.0032 89.0097 31.0032C85.9117 31.0032 84.5697 33.3133 84.5897 35.4632C84.6097 37.5931 85.8382 39.8098 89.0097 39.8098C90.1313 39.8098 91.3932 39.3491 92.2412 38.5078L93.8903 40.177V40.1703Z" fill="black"></path>
<path d="M96.748 41.7861V28.9402H99.1516V41.7861H96.748Z" fill="black"></path>
<path d="M106.803 31.1435H102.73V28.9402H113.299V31.1435H109.227V41.7861H106.803V31.1435Z" fill="black"></path>
<path d="M116.251 41.7861V28.9402H118.654V41.7861H116.251Z" fill="black"></path>
<path d="M122.199 28.9402H132.074V30.0752L125.411 39.4893H132.074V41.7861H122.039V40.3907L128.556 31.2169H122.206V28.9402H122.199Z" fill="black"></path>
<path d="M144.58 41.7861H134.965V28.9402H144.58V31.2904H137.369V34.2415H144.326V36.4982H137.369V39.3959H144.58V41.7794V41.7861Z" fill="black"></path>
<path d="M156.745 28.92H159.168V41.786H157.666V41.806L150.916 33.1264V41.786H148.492V28.9401H150.455L156.751 36.9054V28.9267L156.745 28.92Z" fill="black"></path>
<path d="M90.492 50.9732C90.0513 50.2387 88.8428 49.5444 87.4474 49.5444C85.6514 49.5444 84.7901 50.2988 84.7901 51.2536C84.7901 52.3753 86.1121 52.6824 87.6544 52.8694C90.3317 53.1965 92.8288 53.8976 92.8288 56.9622C92.8288 59.8265 90.2983 61.055 87.4341 61.055C84.8101 61.055 82.7938 60.2471 81.839 57.8969L83.8554 56.8487C84.4229 58.2641 85.9118 58.885 87.4674 58.885C89.0231 58.885 90.4185 58.3509 90.4185 56.9555C90.4185 55.747 89.15 55.2463 87.4474 55.066C84.8235 54.7522 82.3998 54.0578 82.3998 51.1735C82.3998 48.5295 85.0037 47.4479 87.374 47.4279C89.377 47.4279 91.4467 47.9954 92.4215 49.9783L90.492 50.9665V50.9732Z" fill="black"></path>
<path d="M108.786 54.3716C108.753 57.6899 106.71 61.0149 102.196 61.0149C97.6827 61.0149 95.5929 57.77 95.5929 54.3916C95.5929 51.0132 97.7562 47.6215 102.196 47.6215C106.636 47.6215 108.819 51.0132 108.786 54.3716ZM97.9765 54.425C98.0299 56.5348 99.1716 58.7915 102.196 58.7915C105.221 58.7915 106.362 56.5148 106.396 54.405C106.429 52.2417 105.221 49.8181 102.196 49.8181C99.1716 49.8181 97.9231 52.2618 97.9765 54.425Z" fill="black"></path>
<path d="M114.455 47.8751V58.4777H121.058V60.7143H112.031V47.8684H114.455V47.8751Z" fill="black"></path>
<path d="M134.745 47.8951V55.2528C134.745 59.0519 132.415 60.9948 129.183 60.9948C125.952 60.9948 123.475 59.1253 123.475 55.2528V47.8951H125.878V55.2528C125.878 57.563 127.2 58.7915 129.197 58.7915C131.193 58.7915 132.335 57.4495 132.335 55.2528V47.8951H134.738H134.745Z" fill="black"></path>
<path d="M141.902 50.0786H137.83V47.8752H148.399V50.0786H144.326V60.7212H141.902V50.0786Z" fill="black"></path>
<path d="M151.35 60.7212V47.8752H153.753V60.7212H151.35Z" fill="black"></path>
<path d="M170.505 54.3716C170.472 57.6899 168.429 61.0149 163.915 61.0149C159.402 61.0149 157.312 57.77 157.312 54.3916C157.312 51.0132 159.475 47.6215 163.915 47.6215C168.355 47.6215 170.539 51.0132 170.505 54.3716ZM159.696 54.425C159.749 56.5348 160.891 58.7915 163.915 58.7915C166.94 58.7915 168.082 56.5148 168.115 54.405C168.148 52.2417 166.94 49.8181 163.915 49.8181C160.891 49.8181 159.642 52.2618 159.696 54.425Z" fill="black"></path>
<path d="M182.196 47.8552H184.62V60.7145H183.117V60.7345L176.367 52.0549V60.7145H173.944V47.8686H175.907L182.203 55.8339V47.8552H182.196Z" fill="black"></path>
<path d="M196.431 50.9732C195.99 50.2387 194.782 49.5444 193.386 49.5444C191.59 49.5444 190.729 50.2988 190.729 51.2536C190.729 52.3753 192.051 52.6824 193.593 52.8694C196.271 53.1965 198.768 53.8976 198.768 56.9622C198.768 59.8265 196.237 61.055 193.373 61.055C190.749 61.055 188.733 60.2471 187.778 57.8969L189.794 56.8487C190.362 58.2641 191.851 58.885 193.406 58.885C194.962 58.885 196.357 58.3509 196.357 56.9555C196.357 55.747 195.089 55.2463 193.386 55.066C190.762 54.7522 188.339 54.0578 188.339 51.1735C188.339 48.5295 190.943 47.4479 193.313 47.4279C195.316 47.4279 197.386 47.9954 198.36 49.9783L196.431 50.9665V50.9732Z" fill="black"></path>
</svg>