<svg width="270" height="17" viewBox="0 0 270 17" fill="none" xmlns="http://www.w3.org/2000/svg">
<path d="M8.51693 0.000610352C4.09614 0.000610352 0.513367 3.61953 0.513367 8.08005C0.513367 12.5406 4.09614 16.1595 8.51693 16.1595C12.9377 16.1595 16.5205 12.5406 16.5205 8.08005C16.5205 3.61953 12.9499 0.000610352 8.51693 0.000610352ZM11.8932 9.59494C11.8204 9.63101 11.7839 9.71517 11.8082 9.78731L12.5855 11.9394C12.6341 12.0597 12.5126 12.1799 12.3912 12.1318L10.2537 11.3383C10.1808 11.3142 10.0958 11.3383 10.0593 11.4224L8.66267 14.4162C8.60194 14.5364 8.43191 14.5364 8.38333 14.4162L6.98666 11.4224C6.95022 11.3503 6.86521 11.3142 6.79234 11.3383L4.63053 12.1318C4.50907 12.1799 4.38762 12.0597 4.4362 11.9394L5.22563 9.78731C5.24992 9.71517 5.22563 9.63101 5.14061 9.59494L2.12865 8.2123C2.0072 8.15219 2.0072 7.98387 2.12865 7.93577L5.14061 6.55313C5.21349 6.51706 5.24992 6.4329 5.22563 6.36076L4.41191 4.2327C4.36333 4.11247 4.48478 3.99224 4.60623 4.04033L6.79234 4.8098C6.86521 4.83385 6.95022 4.8098 6.98666 4.72564L8.38333 1.74394C8.44406 1.62371 8.60194 1.62371 8.66267 1.74394L10.0593 4.72564C10.0958 4.79778 10.1808 4.83385 10.2537 4.8098L12.4155 4.02831C12.5369 3.98022 12.6584 4.10045 12.6098 4.22067L11.8082 6.36076C11.7839 6.4329 11.8082 6.51706 11.8932 6.55313L14.9173 7.93577C15.0388 7.99589 15.0388 8.16421 14.9173 8.2123L11.8932 9.59494Z" fill="white"></path>
<path d="M34.8085 5.40505C34.092 4.71974 33.0232 4.34702 32.088 4.34702C29.7926 4.34702 28.4081 6.07833 28.4081 8.25449C28.4081 9.99782 29.4283 11.8013 32.088 11.8013C32.926 11.8013 33.6669 11.6209 34.5049 10.9476V9.07205H31.7723V7.28063H36.3631V11.7412C35.3065 12.9314 33.9827 13.6528 32.1002 13.6528C28.0802 13.6528 26.4406 11.0318 26.4406 8.25449C26.4406 5.27279 28.3231 2.51953 32.1002 2.51953C33.5333 2.51953 34.9786 3.06057 36.0716 4.14263L34.8207 5.41707L34.8085 5.40505Z" fill="white"></path>
<path d="M41.2451 2.82007V11.5728H46.7468V13.4243H39.229V2.82007H41.2451Z" fill="white"></path>
<path d="M59.5965 8.18218C59.56 10.9234 57.8719 13.6647 54.1069 13.6647C50.342 13.6647 48.6052 10.9835 48.6052 8.1942C48.6052 5.40487 50.4148 2.60352 54.1069 2.60352C57.799 2.60352 59.6329 5.40487 59.5965 8.17015V8.18218ZM50.5849 8.21825C50.6334 9.96158 51.5808 11.8251 54.1069 11.8251C56.6331 11.8251 57.5804 9.94955 57.6047 8.20622C57.6411 6.4148 56.6209 4.41898 54.1069 4.41898C51.5929 4.41898 50.5484 6.42682 50.5849 8.21825Z" fill="white"></path>
<path d="M71 5.88593C71 6.70349 70.5992 7.48498 69.6033 7.92983C70.8543 8.30255 71.3158 9.62507 71.3158 10.2863C71.3158 12.6428 69.5305 13.4003 67.3079 13.4003H62.2313V2.82007H67.3079C69.4212 2.82007 70.9879 3.75786 70.9879 5.89795L71 5.88593ZM64.2231 7.0762H67.3079C68.5832 7.0762 68.9961 6.54719 68.9961 5.94604C68.9961 5.46512 68.5953 4.64756 67.3079 4.64756H64.2231V7.08822V7.0762ZM64.2231 11.5487H67.3079C68.1338 11.5487 69.3119 11.2722 69.3119 10.2743C69.3119 9.27641 68.1338 8.81953 67.3079 8.81953H64.2231V11.5487Z" fill="white"></path>
<path d="M81.5662 11.4165H75.9673L75.0443 13.4123H72.8582L77.6555 2.82007H79.8537L84.651 13.4123H82.4528L81.554 11.4165H81.5662ZM78.7728 5.04432L76.7811 9.55294H80.7525L78.7607 5.04432H78.7728Z" fill="white"></path>
<path d="M88.9752 2.82007V11.5728H94.4769V13.4243H86.9591V2.82007H88.9752Z" fill="white"></path>
<path d="M110.873 12.0776C109.768 13.1476 108.347 13.6526 106.804 13.6526C102.833 13.6526 101.145 10.9474 101.132 8.18211C101.12 5.41683 102.942 2.59143 106.804 2.59143C108.262 2.59143 109.634 3.13246 110.739 4.21453L109.391 5.50099C108.687 4.81568 107.739 4.50308 106.804 4.50308C104.217 4.50308 103.1 6.41474 103.124 8.18211C103.136 9.93747 104.169 11.765 106.804 11.765C107.739 11.765 108.796 11.3922 109.5 10.6949L110.873 12.0776Z" fill="white"></path>
<path d="M113.265 13.4123V2.82007H115.269V13.4123H113.265Z" fill="white"></path>
<path d="M121.645 4.63554H118.245V2.82007H127.05V4.63554H123.661V13.4123H121.645V4.63554Z" fill="white"></path>
<path d="M129.515 13.4123V2.82007H131.519V13.4123H129.515Z" fill="white"></path>
<path d="M134.47 2.82013H142.693V3.75792L137.142 11.5248H142.693V13.4124H134.325V12.2582L139.754 4.68369H134.458V2.80811L134.47 2.82013Z" fill="white"></path>
<path d="M153.125 13.4123H145.109V2.82007H153.125V4.75577H147.113V7.19643H152.907V9.05999H147.113V11.4526H153.125V13.4243V13.4123Z" fill="white"></path>
<path d="M163.266 2.80811H165.282V13.4244H164.031L158.408 6.28275V13.4244H156.392V2.82013H158.032L163.278 9.38467V2.80811H163.266Z" fill="white"></path>
<path d="M179.273 5.38093C178.908 4.77978 177.9 4.20268 176.734 4.20268C175.241 4.20268 174.512 4.82788 174.512 5.60937C174.512 6.53514 175.617 6.78762 176.892 6.94392C179.127 7.22045 181.204 7.79755 181.204 10.3224C181.204 12.6789 179.091 13.7008 176.71 13.7008C174.524 13.7008 172.836 13.0396 172.047 11.0918L173.735 10.2262C174.208 11.3924 175.447 11.9094 176.747 11.9094C178.046 11.9094 179.212 11.4646 179.212 10.3224C179.212 9.32447 178.155 8.91569 176.734 8.75939C174.548 8.50691 172.532 7.9298 172.532 5.54925C172.532 3.3731 174.706 2.47137 176.674 2.45935C178.338 2.45935 180.062 2.92825 180.876 4.56337L179.273 5.38093Z" fill="white"></path>
<path d="M194.515 8.18218C194.479 10.9234 192.791 13.6647 189.026 13.6647C185.261 13.6647 183.524 10.9835 183.524 8.1942C183.524 5.40487 185.334 2.60352 189.026 2.60352C192.718 2.60352 194.552 5.40487 194.515 8.17015V8.18218ZM185.504 8.21825C185.552 9.96158 186.5 11.8251 189.026 11.8251C191.552 11.8251 192.499 9.94955 192.523 8.20622C192.56 6.4148 191.54 4.41898 189.026 4.41898C186.512 4.41898 185.467 6.42682 185.504 8.21825Z" fill="white"></path>
<path d="M199.239 2.82007V11.5728H204.741V13.4243H197.223V2.82007H199.239Z" fill="white"></path>
<path d="M216.145 2.83215V8.90376C216.145 12.0418 214.202 13.6408 211.518 13.6408C208.834 13.6408 206.757 12.1019 206.757 8.90376V2.83215H208.761V8.90376C208.761 10.8154 209.866 11.8253 211.53 11.8253C213.194 11.8253 214.141 10.7192 214.141 8.90376V2.83215H216.145Z" fill="white"></path>
<path d="M222.109 4.63554H218.708V2.82007H227.514V4.63554H224.113V13.4123H222.097V4.63554H222.109Z" fill="white"></path>
<path d="M229.991 13.4123V2.82007H231.995V13.4123H229.991Z" fill="white"></path>
<path d="M245.949 8.18218C245.913 10.9234 244.225 13.6647 240.46 13.6647C236.695 13.6647 234.958 10.9835 234.958 8.1942C234.958 5.40487 236.768 2.60352 240.46 2.60352C244.152 2.60352 245.986 5.40487 245.949 8.17015V8.18218ZM236.938 8.21825C236.986 9.96158 237.934 11.8251 240.46 11.8251C242.986 11.8251 243.933 9.94955 243.958 8.20622C243.994 6.4148 242.974 4.41898 240.46 4.41898C237.946 4.41898 236.901 6.42682 236.938 8.21825Z" fill="white"></path>
<path d="M255.69 2.80811H257.706V13.4244H256.455L250.832 6.28275V13.4244H248.816V2.82013H250.455L255.702 9.38467V2.80811H255.69Z" fill="white"></path>
<path d="M267.555 5.38093C267.191 4.77978 266.183 4.20268 265.017 4.20268C263.523 4.20268 262.795 4.82788 262.795 5.60937C262.795 6.53514 263.9 6.78762 265.175 6.94392C267.41 7.22045 269.486 7.79755 269.486 10.3224C269.486 12.6789 267.373 13.7008 264.993 13.7008C262.807 13.7008 261.119 13.0396 260.329 11.0918L262.017 10.2262C262.491 11.3924 263.73 11.9094 265.029 11.9094C266.329 11.9094 267.495 11.4646 267.495 10.3224C267.495 9.32447 266.438 8.91569 265.017 8.75939C262.831 8.50691 260.815 7.9298 260.815 5.54925C260.815 3.3731 262.989 2.47137 264.956 2.45935C266.62 2.45935 268.357 2.92825 269.159 4.56337L267.555 5.38093Z" fill="white"></path>
</svg>