<svg width="269" height="17" viewBox="0 0 269 17" fill="none" xmlns="http://www.w3.org/2000/svg">
<path d="M8.00344 0.000488281C3.58266 0.000488281 -0.00012207 3.6194 -0.00012207 8.07993C-0.00012207 12.5405 3.58266 16.1594 8.00344 16.1594C12.4242 16.1594 16.007 12.5405 16.007 8.07993C16.007 3.6194 12.4364 0.000488281 8.00344 0.000488281ZM11.3798 9.59482C11.3069 9.63089 11.2704 9.71505 11.2947 9.78719L12.072 11.9393C12.1206 12.0595 11.9991 12.1798 11.8777 12.1317L9.74018 11.3382C9.66731 11.3141 9.58229 11.3382 9.54586 11.4223L8.14918 14.416C8.08845 14.5363 7.91842 14.5363 7.86984 14.416L6.47317 11.4223C6.43673 11.3502 6.35172 11.3141 6.27885 11.3382L4.11704 12.1317C3.99559 12.1798 3.87414 12.0595 3.92272 11.9393L4.71214 9.78719C4.73643 9.71505 4.71214 9.63089 4.62713 9.59482L1.61516 8.21218C1.49371 8.15207 1.49371 7.98374 1.61516 7.93565L4.62713 6.55301C4.7 6.51694 4.73643 6.43278 4.71214 6.36064L3.89843 4.23258C3.84985 4.11235 3.9713 3.99212 4.09275 4.04021L6.27885 4.80968C6.35172 4.83372 6.43673 4.80968 6.47317 4.72552L7.86984 1.74382C7.93057 1.62359 8.08845 1.62359 8.14918 1.74382L9.54586 4.72552C9.58229 4.79766 9.66731 4.83372 9.74018 4.80968L11.902 4.02819C12.0234 3.98009 12.1449 4.10032 12.0963 4.22055L11.2947 6.36064C11.2704 6.43278 11.2947 6.51694 11.3798 6.55301L14.4039 7.93565C14.5253 7.99577 14.5253 8.16409 14.4039 8.21218L11.3798 9.59482Z" fill="black"></path>
<path d="M34.295 5.40492C33.5785 4.71961 32.5097 4.3469 31.5746 4.3469C29.2791 4.3469 27.8946 6.07821 27.8946 8.25437C27.8946 9.9977 28.9148 11.8011 31.5746 11.8011C32.4126 11.8011 33.1534 11.6208 33.9914 10.9475V9.07193H31.2588V7.28051H35.8496V11.741C34.793 12.9313 33.4692 13.6527 31.5867 13.6527C27.5667 13.6527 25.9271 11.0317 25.9271 8.25437C25.9271 5.27267 27.8096 2.51941 31.5867 2.51941C33.0198 2.51941 34.4651 3.06044 35.5581 4.14251L34.3072 5.41695L34.295 5.40492Z" fill="black"></path>
<path d="M40.7316 2.81995V11.5727H46.2333V13.4242H38.7155V2.81995H40.7316Z" fill="black"></path>
<path d="M59.083 8.18205C59.0465 10.9233 57.3584 13.6645 53.5934 13.6645C49.8285 13.6645 48.0917 10.9834 48.0917 8.19408C48.0917 5.40475 49.9013 2.60339 53.5934 2.60339C57.2855 2.60339 59.1194 5.40475 59.083 8.17003V8.18205ZM50.0714 8.21812C50.12 9.96145 51.0673 11.825 53.5934 11.825C56.1196 11.825 57.0669 9.94943 57.0912 8.2061C57.1276 6.41468 56.1074 4.41886 53.5934 4.41886C51.0794 4.41886 50.0349 6.4267 50.0714 8.21812Z" fill="black"></path>
<path d="M70.4866 5.88581C70.4866 6.70337 70.0858 7.48486 69.0899 7.92971C70.3408 8.30242 70.8023 9.62495 70.8023 10.2862C70.8023 12.6427 69.017 13.4002 66.7945 13.4002H61.7179V2.81995H66.7945C68.9077 2.81995 70.4744 3.75774 70.4744 5.89783L70.4866 5.88581ZM63.7096 7.07608H66.7945C68.0697 7.07608 68.4826 6.54707 68.4826 5.94592C68.4826 5.465 68.0818 4.64744 66.7945 4.64744H63.7096V7.0881V7.07608ZM63.7096 11.5486H66.7945C67.6203 11.5486 68.7984 11.2721 68.7984 10.2742C68.7984 9.27628 67.6203 8.81941 66.7945 8.81941H63.7096V11.5486Z" fill="black"></path>
<path d="M81.0527 11.4164H75.4538L74.5308 13.4122H72.3447L77.142 2.81995H79.3402L84.1375 13.4122H81.9393L81.0405 11.4164H81.0527ZM78.2593 5.0442L76.2676 9.55281H80.239L78.2472 5.0442H78.2593Z" fill="black"></path>
<path d="M88.4617 2.81995V11.5727H93.9634V13.4242H86.4456V2.81995H88.4617Z" fill="black"></path>
<path d="M110.359 12.0774C109.254 13.1475 107.833 13.6524 106.291 13.6524C102.319 13.6524 100.631 10.9473 100.619 8.18199C100.607 5.41671 102.429 2.59131 106.291 2.59131C107.748 2.59131 109.12 3.13234 110.226 4.21441L108.878 5.50087C108.173 4.81556 107.226 4.50296 106.291 4.50296C103.704 4.50296 102.586 6.41461 102.611 8.18199C102.623 9.93735 103.655 11.7648 106.291 11.7648C107.226 11.7648 108.282 11.3921 108.987 10.6948L110.359 12.0774Z" fill="black"></path>
<path d="M112.751 13.4122V2.81995H114.755V13.4122H112.751Z" fill="black"></path>
<path d="M121.132 4.63542H117.731V2.81995H126.536V4.63542H123.148V13.4122H121.132V4.63542Z" fill="black"></path>
<path d="M129.001 13.4122V2.81995H131.005V13.4122H129.001Z" fill="black"></path>
<path d="M133.957 2.82001H142.179V3.7578L136.629 11.5246H142.179V13.4122H133.811V12.258L139.24 4.68357H133.945V2.80798L133.957 2.82001Z" fill="black"></path>
<path d="M152.612 13.4122H144.596V2.81995H152.612V4.75565H146.6V7.19631H152.393V9.05987H146.6V11.4524H152.612V13.4242V13.4122Z" fill="black"></path>
<path d="M162.753 2.80798H164.769V13.4243H163.518L157.895 6.28262V13.4243H155.879V2.82001H157.518L162.765 9.38455V2.80798H162.753Z" fill="black"></path>
<path d="M178.759 5.38081C178.395 4.77966 177.387 4.20256 176.221 4.20256C174.727 4.20256 173.998 4.82775 173.998 5.60925C173.998 6.53502 175.104 6.7875 176.379 6.9438C178.614 7.22033 180.69 7.79743 180.69 10.3223C180.69 12.6788 178.577 13.7007 176.197 13.7007C174.011 13.7007 172.322 13.0394 171.533 11.0917L173.221 10.2261C173.695 11.3923 174.934 11.9093 176.233 11.9093C177.533 11.9093 178.699 11.4644 178.699 10.3223C178.699 9.32435 177.642 8.91557 176.221 8.75927C174.035 8.50678 172.019 7.92968 172.019 5.54913C172.019 3.37297 174.193 2.47125 176.16 2.45923C177.824 2.45923 179.549 2.92812 180.362 4.56325L178.759 5.38081Z" fill="black"></path>
<path d="M194.002 8.18205C193.965 10.9233 192.277 13.6645 188.512 13.6645C184.747 13.6645 183.01 10.9834 183.01 8.19408C183.01 5.40475 184.82 2.60339 188.512 2.60339C192.204 2.60339 194.038 5.40475 194.002 8.17003V8.18205ZM184.99 8.21812C185.039 9.96145 185.986 11.825 188.512 11.825C191.038 11.825 191.986 9.94943 192.01 8.2061C192.046 6.41468 191.026 4.41886 188.512 4.41886C185.998 4.41886 184.954 6.4267 184.99 8.21812Z" fill="black"></path>
<path d="M198.726 2.81995V11.5727H204.227V13.4242H196.71V2.81995H198.726Z" fill="black"></path>
<path d="M215.632 2.83203V8.90363C215.632 12.0416 213.689 13.6407 211.004 13.6407C208.32 13.6407 206.244 12.1017 206.244 8.90363V2.83203H208.248V8.90363C208.248 10.8153 209.353 11.8252 211.017 11.8252C212.681 11.8252 213.628 10.7191 213.628 8.90363V2.83203H215.632Z" fill="black"></path>
<path d="M221.596 4.63542H218.195V2.81995H227V4.63542H223.599V13.4122H221.583V4.63542H221.596Z" fill="black"></path>
<path d="M229.478 13.4122V2.81995H231.481V13.4122H229.478Z" fill="black"></path>
<path d="M245.436 8.18205C245.399 10.9233 243.711 13.6645 239.946 13.6645C236.181 13.6645 234.445 10.9834 234.445 8.19408C234.445 5.40475 236.254 2.60339 239.946 2.60339C243.638 2.60339 245.472 5.40475 245.436 8.17003V8.18205ZM236.424 8.21812C236.473 9.96145 237.42 11.825 239.946 11.825C242.472 11.825 243.42 9.94943 243.444 8.2061C243.481 6.41468 242.46 4.41886 239.946 4.41886C237.432 4.41886 236.388 6.4267 236.424 8.21812Z" fill="black"></path>
<path d="M255.176 2.80798H257.192V13.4243H255.941L250.318 6.28262V13.4243H248.302V2.82001H249.942L255.188 9.38455V2.80798H255.176Z" fill="black"></path>
<path d="M267.042 5.38081C266.678 4.77966 265.67 4.20256 264.504 4.20256C263.01 4.20256 262.281 4.82775 262.281 5.60925C262.281 6.53502 263.386 6.7875 264.662 6.9438C266.896 7.22033 268.973 7.79743 268.973 10.3223C268.973 12.6788 266.86 13.7007 264.479 13.7007C262.293 13.7007 260.605 13.0394 259.816 11.0917L261.504 10.2261C261.977 11.3923 263.216 11.9093 264.516 11.9093C265.815 11.9093 266.981 11.4644 266.981 10.3223C266.981 9.32435 265.925 8.91557 264.504 8.75927C262.318 8.50678 260.301 7.92968 260.301 5.54913C260.301 3.37297 262.475 2.47125 264.443 2.45923C266.107 2.45923 267.844 2.92812 268.645 4.56325L267.042 5.38081Z" fill="black"></path>
</svg>