<svg width="199" height="71" viewBox="0 0 199 71" fill="none" xmlns="http://www.w3.org/2000/svg">
<path d="M64.045 35C64.045 51.5685 50.6136 65 34.045 65C17.4765 65 4.04504 51.5685 4.04504 35C4.04504 18.4315 17.4765 5 34.045 5C50.6136 5 64.045 18.4315 64.045 35Z" fill="white"></path>
<path d="M34.7438 0C15.5817 0 0.0450439 15.8237 0.0450439 35.353C0.0450439 54.8823 15.5817 70.6994 34.7438 70.6994C53.9058 70.6994 69.4425 54.869 69.4425 35.353C69.4425 15.8371 53.9058 0 34.7438 0ZM49.0052 42.8376L52.3635 52.2584C52.5572 52.7925 52.0297 53.3066 51.5022 53.1063L42.2484 49.6278C41.9212 49.5076 41.554 49.6545 41.4071 49.975L35.358 63.0613C35.1177 63.5754 34.3832 63.5754 34.1429 63.0613L28.0871 49.9616C27.9402 49.6478 27.573 49.4942 27.2459 49.6144L17.8985 53.073C17.3644 53.2733 16.8436 52.7525 17.0372 52.2183L20.4356 42.8242C20.5558 42.4971 20.4023 42.1365 20.0884 41.9897L7.03553 35.9606C6.52143 35.7203 6.52143 34.9858 7.03553 34.7455L20.0951 28.7031C20.4156 28.5562 20.5625 28.189 20.4423 27.8618L16.9371 18.5612C16.7368 18.027 17.2509 17.5063 17.785 17.6932L27.2659 21.0583C27.593 21.1718 27.9536 21.0249 28.0938 20.7111L34.1429 7.63812C34.3832 7.12402 35.1177 7.12402 35.358 7.63812L41.3937 20.6977C41.5406 21.0115 41.9012 21.1651 42.2283 21.0449L51.6091 17.6465C52.1432 17.4528 52.6573 17.9736 52.4637 18.5078L49.0118 27.8484C48.8917 28.1756 49.0452 28.5428 49.359 28.683L62.4654 34.7455C62.9795 34.9858 62.9795 35.7203 62.4654 35.9606L49.359 42.0164C49.0452 42.1633 48.8917 42.5238 49.0118 42.8443L49.0052 42.8376Z" fill="#000957"></path>
<path d="M91.6211 13.1498C90.7598 12.3219 89.4712 11.8679 88.3562 11.8679C85.6054 11.8679 83.9362 13.9577 83.9362 16.6016C83.9362 18.7115 85.1647 20.8947 88.3562 20.8947C89.3644 20.8947 90.2457 20.6744 91.2539 19.8665V17.5898H87.9689V15.4265H93.4705V20.8413C92.202 22.2902 90.6062 23.1515 88.3495 23.1515C83.5223 23.1515 81.5593 19.98 81.5593 16.6016C81.5593 12.9896 83.816 9.64453 88.3495 9.64453C90.0721 9.64453 91.8014 10.3055 93.1233 11.6075L91.6211 13.1498Z" fill="#000957"></path>
<path d="M99.3461 10.0117V20.6143H105.949V22.851H96.9224V10.0117H99.3461Z" fill="#000957"></path>
<path d="M121.366 16.5081C121.332 19.8264 119.289 23.1514 114.776 23.1514C110.262 23.1514 108.173 19.9065 108.173 16.5281C108.173 13.1497 110.336 9.75793 114.776 9.75793C119.216 9.75793 121.399 13.1497 121.366 16.5081ZM110.556 16.5615C110.61 18.6713 111.751 20.928 114.776 20.928C117.8 20.928 118.942 18.6513 118.975 16.5414C119.009 14.3782 117.8 11.9546 114.776 11.9546C111.751 11.9546 110.503 14.3982 110.556 16.5615Z" fill="#000957"></path>
<path d="M135.046 13.7373C135.046 14.7255 134.572 15.6802 133.377 16.2144C134.879 16.675 135.433 18.2708 135.433 19.0787C135.433 21.943 133.284 22.8577 130.626 22.8577H124.537V10.0117H130.626C133.157 10.0117 135.046 11.1468 135.046 13.7373ZM126.921 15.1661H130.626C132.149 15.1661 132.643 14.5252 132.643 13.7907C132.643 13.2032 132.169 12.215 130.626 12.215H126.921V15.1661ZM126.921 20.5943H130.626C131.614 20.5943 133.03 20.2671 133.03 19.0519C133.03 17.8368 131.614 17.2893 130.626 17.2893H126.921V20.5943Z" fill="#000957"></path>
<path d="M147.725 20.434H141.009L139.907 22.8577H137.283L143.045 10.0117H145.689L151.451 22.8577H148.807L147.725 20.434ZM144.367 12.7091L141.983 18.1773H146.757L144.374 12.7091H144.367Z" fill="#000957"></path>
<path d="M156.625 10.0117V20.6143H163.229V22.851H154.202V10.0117H156.625Z" fill="#000957"></path>
<path d="M93.4038 40.1703C92.0818 41.4722 90.3792 42.0798 88.5231 42.0798C83.7493 42.0798 81.7329 38.7949 81.7129 35.4566C81.6929 32.0982 83.8762 28.6864 88.5231 28.6864C90.2657 28.6864 91.9149 29.3474 93.2369 30.6493L91.6211 32.2117C90.7798 31.3838 89.6381 31.0032 88.5231 31.0032C85.4251 31.0032 84.0831 33.3133 84.1032 35.4632C84.1232 37.5931 85.3517 39.8098 88.5231 39.8098C89.6448 39.8098 90.9067 39.3491 91.7546 38.5078L93.4038 40.177V40.1703Z" fill="#000957"></path>
<path d="M96.2615 41.7861V28.9402H98.6651V41.7861H96.2615Z" fill="#000957"></path>
<path d="M106.316 31.1435H102.244V28.9402H112.813V31.1435H108.74V41.7861H106.316V31.1435Z" fill="#000957"></path>
<path d="M115.764 41.7861V28.9402H118.168V41.7861H115.764Z" fill="#000957"></path>
<path d="M121.713 28.9402H131.588V30.0752L124.924 39.4893H131.588V41.7861H121.553V40.3907L128.069 31.2169H121.72V28.9402H121.713Z" fill="#000957"></path>
<path d="M144.093 41.7861H134.479V28.9402H144.093V31.2904H136.882V34.2415H143.839V36.4982H136.882V39.3959H144.093V41.7794V41.7861Z" fill="#000957"></path>
<path d="M156.258 28.92H158.682V41.786H157.18V41.806L150.429 33.1264V41.786H148.006V28.9401H149.969L156.265 36.9054V28.9267L156.258 28.92Z" fill="#000957"></path>
<path d="M90.0055 50.9732C89.5648 50.2387 88.3563 49.5444 86.9609 49.5444C85.1649 49.5444 84.3036 50.2988 84.3036 51.2536C84.3036 52.3753 85.6256 52.6824 87.1679 52.8694C89.8452 53.1965 92.3423 53.8976 92.3423 56.9622C92.3423 59.8265 89.8118 61.055 86.9475 61.055C84.3236 61.055 82.3072 60.2471 81.3525 57.8969L83.3688 56.8487C83.9364 58.2641 85.4253 58.885 86.9809 58.885C88.5366 58.885 89.932 58.3509 89.932 56.9555C89.932 55.747 88.6635 55.2463 86.9609 55.066C84.337 54.7522 81.9133 54.0578 81.9133 51.1735C81.9133 48.5295 84.5172 47.4479 86.8875 47.4279C88.8905 47.4279 90.9602 47.9954 91.935 49.9783L90.0055 50.9665V50.9732Z" fill="#000957"></path>
<path d="M108.3 54.3716C108.266 57.6899 106.223 61.0149 101.71 61.0149C97.1962 61.0149 95.1064 57.77 95.1064 54.3916C95.1064 51.0132 97.2697 47.6215 101.71 47.6215C106.15 47.6215 108.333 51.0132 108.3 54.3716ZM97.49 54.425C97.5434 56.5348 98.6851 58.7915 101.71 58.7915C104.734 58.7915 105.876 56.5148 105.909 54.405C105.943 52.2417 104.734 49.8181 101.71 49.8181C98.6851 49.8181 97.4366 52.2618 97.49 54.425Z" fill="#000957"></path>
<path d="M113.968 47.8751V58.4777H120.571V60.7143H111.544V47.8684H113.968V47.8751Z" fill="#000957"></path>
<path d="M134.258 47.8951V55.2528C134.258 59.0519 131.928 60.9948 128.697 60.9948C125.465 60.9948 122.988 59.1253 122.988 55.2528V47.8951H125.392V55.2528C125.392 57.563 126.714 58.7915 128.71 58.7915C130.706 58.7915 131.848 57.4495 131.848 55.2528V47.8951H134.252H134.258Z" fill="#000957"></path>
<path d="M141.416 50.0786H137.343V47.8752H147.912V50.0786H143.839V60.7212H141.416V50.0786Z" fill="#000957"></path>
<path d="M150.863 60.7212V47.8752H153.267V60.7212H150.863Z" fill="#000957"></path>
<path d="M170.019 54.3716C169.985 57.6899 167.942 61.0149 163.429 61.0149C158.915 61.0149 156.826 57.77 156.826 54.3916C156.826 51.0132 158.989 47.6215 163.429 47.6215C167.869 47.6215 170.052 51.0132 170.019 54.3716ZM159.209 54.425C159.263 56.5348 160.404 58.7915 163.429 58.7915C166.453 58.7915 167.595 56.5148 167.628 54.405C167.662 52.2417 166.453 49.8181 163.429 49.8181C160.404 49.8181 159.156 52.2618 159.209 54.425Z" fill="#000957"></path>
<path d="M181.71 47.8552H184.133V60.7145H182.631V60.7345L175.881 52.0549V60.7145H173.457V47.8686H175.42L181.716 55.8339V47.8552H181.71Z" fill="#000957"></path>
<path d="M195.944 50.9732C195.504 50.2387 194.295 49.5444 192.9 49.5444C191.104 49.5444 190.242 50.2988 190.242 51.2536C190.242 52.3753 191.564 52.6824 193.107 52.8694C195.784 53.1965 198.281 53.8976 198.281 56.9622C198.281 59.8265 195.751 61.055 192.886 61.055C190.263 61.055 188.246 60.2471 187.291 57.8969L189.308 56.8487C189.875 58.2641 191.364 58.885 192.92 58.885C194.475 58.885 195.871 58.3509 195.871 56.9555C195.871 55.747 194.602 55.2463 192.9 55.066C190.276 54.7522 187.852 54.0578 187.852 51.1735C187.852 48.5295 190.456 47.4479 192.826 47.4279C194.829 47.4279 196.899 47.9954 197.874 49.9783L195.944 50.9665V50.9732Z" fill="#000957"></path>
</svg>