<svg width="70" height="71" viewBox="0 0 70 71" fill="none" xmlns="http://www.w3.org/2000/svg">
<path d="M35.1852 0C16.0232 0 0.486511 15.8237 0.486511 35.353C0.486511 54.8823 16.0232 70.6994 35.1852 70.6994C54.3473 70.6994 69.884 54.869 69.884 35.353C69.884 15.8371 54.3473 0 35.1852 0ZM49.4466 42.8376L52.805 52.2584C52.9986 52.7925 52.4712 53.3066 51.9437 53.1063L42.6898 49.6278C42.3627 49.5076 41.9954 49.6545 41.8486 49.975L35.7995 63.0613C35.5591 63.5754 34.8247 63.5754 34.5843 63.0613L28.5286 49.9616C28.3817 49.6478 28.0145 49.4942 27.6873 49.6144L18.34 53.073C17.8058 53.2733 17.285 52.7525 17.4787 52.2183L20.8771 42.8242C20.9973 42.4971 20.8437 42.1365 20.5299 41.9897L7.477 35.9606C6.96289 35.7203 6.96289 34.9858 7.477 34.7455L20.5366 28.7031C20.8571 28.5562 21.004 28.189 20.8838 27.8618L17.3785 18.5612C17.1782 18.027 17.6923 17.5063 18.2265 17.6932L27.7073 21.0583C28.0345 21.1718 28.395 21.0249 28.5353 20.7111L34.5843 7.63812C34.8247 7.12402 35.5591 7.12402 35.7995 7.63812L41.8352 20.6977C41.9821 21.0115 42.3426 21.1651 42.6698 21.0449L52.0505 17.6465C52.5847 17.4528 53.0988 17.9736 52.9052 18.5078L49.4533 27.8484C49.3331 28.1756 49.4867 28.5428 49.8005 28.683L62.9068 34.7455C63.4209 34.9858 63.4209 35.7203 62.9068 35.9606L49.8005 42.0164C49.4867 42.1633 49.3331 42.5238 49.4533 42.8443L49.4466 42.8376Z" fill="black"></path>
</svg>