<svg width="1128" height="56" viewBox="0 0 1128 56" fill="none" xmlns="http://www.w3.org/2000/svg">
<path d="M1101.79 53.1684V10.3644H1085.41V1.50836C1100.32 1.50836 1112.94 1.50836 1127.92 1.50836V10.3644H1111.54V53.1684H1101.79Z" fill="white"></path>
<path d="M1072.49 53.1684H1062.82V1.50836H1072.49V53.1684Z" fill="white"></path>
<path d="M1039.66 33.5376V1.43457H1049.4V53.1684H1043.35V53.2422L1016.19 18.3348V53.1684H1006.45V1.50837H1014.34L1039.66 33.5376Z" fill="white"></path>
<path d="M982.08 1.58215H991.748V31.176C991.748 46.4526 982.375 54.2754 969.386 54.2754C956.988 54.2754 946.435 46.7478 946.435 31.176V1.58215H956.102V31.176C956.102 40.4748 961.416 45.4194 969.46 45.4194C977.504 45.4194 982.08 40.032 982.08 31.176V1.58215Z" fill="white"></path>
<path d="M912.131 43.5744V53.1684H873.459C873.459 35.973 873.459 18.7038 873.459 1.50836H912.131V10.9548H883.127V22.8366H911.097V31.914H883.127V43.5744H912.131Z" fill="white"></path>
<path d="M857.046 39.9582L863.688 46.674C858.374 51.9138 851.511 54.3492 844.057 54.3492C824.869 54.3492 816.751 41.139 816.677 27.7074C816.603 14.202 825.386 0.475159 844.057 0.475159C851.068 0.475159 857.71 3.13196 863.024 8.37176L856.529 14.6448C853.134 11.3238 848.559 9.77396 844.057 9.77396C831.585 9.77396 826.197 19.0728 826.271 27.7074C826.345 36.2682 831.29 45.198 844.057 45.198C848.559 45.198 853.651 43.353 857.046 39.9582Z" fill="white"></path>
<path d="M795.062 33.5376V1.43457H804.803V53.1684H798.752V53.2422L771.593 18.3348V53.1684H761.852V1.50837H769.748L795.062 33.5376Z" fill="white"></path>
<path d="M747.571 43.5744V53.1684H708.9C708.9 35.973 708.9 18.7038 708.9 1.50836H747.571V10.9548H718.568V22.8366H746.538V31.914H718.568V43.5744H747.571Z" fill="white"></path>
<path d="M695.283 7.92895L689.231 14.1281C685.762 10.8072 680.596 8.96215 676.095 8.96215C665.025 8.96215 658.309 17.3754 658.309 28.0026C658.309 36.4896 663.253 45.2718 676.095 45.2718C680.154 45.2718 683.696 44.3862 687.755 41.139V31.9878H674.545V23.2794H696.685V45.0504C691.593 50.8806 685.172 54.3492 676.095 54.3492C656.685 54.3492 648.789 41.5818 648.789 28.0026C648.789 13.4639 657.866 0.0323486 676.095 0.0323486C683.032 0.0323486 689.969 2.68915 695.283 7.92895Z" fill="white"></path>
<path d="M637.286 53.1684H627.618V1.50836H637.286V53.1684Z" fill="white"></path>
<path d="M579.946 1.50836H589.688V44.1648H616.256V53.1684H579.946V1.50836Z" fill="white"></path>
<path d="M532.348 1.50836H542.09V44.1648H568.658V53.1684H532.348V1.50836Z" fill="white"></path>
<path d="M520.391 43.5744V53.1684H481.72C481.72 35.973 481.72 18.7038 481.72 1.50836H520.391V10.9548H491.388V22.8366H519.358V31.914H491.388V43.5744H520.391Z" fill="white"></path>
<path d="M445.393 53.1684V10.3644H429.009V1.50836C443.917 1.50836 456.537 1.50836 471.518 1.50836V10.3644H455.134V53.1684H445.393Z" fill="white"></path>
<path d="M408.944 33.5376V1.43457H418.685V53.1684H412.634V53.2422L385.475 18.3348V53.1684H375.734V1.50837H383.63L408.944 33.5376Z" fill="white"></path>
<path d="M361.427 53.1684H351.759V1.50836H361.427V53.1684Z" fill="white"></path>
<path d="M281.741 1.50836H291.482V44.1648H318.05V53.1684H281.741V1.50836Z" fill="white"></path>
<path d="M261.482 53.1684L257.128 43.4268H230.117L225.689 53.1684H215.135L238.309 1.50836H248.936L272.109 53.1684H261.482ZM253.216 34.3494L243.622 12.357L234.028 34.3494H253.216Z" fill="white"></path>
<path d="M174.943 30.807V44.091H189.85C193.835 44.091 199.518 42.7626 199.518 37.8918C199.518 33.2424 193.835 30.807 189.85 30.807H174.943ZM174.943 10.3644V22.2462H189.85C195.976 22.2462 197.968 19.6632 197.968 16.7112C197.968 14.3496 196.049 10.3644 189.85 10.3644H174.943ZM189.85 1.50836C200.035 1.50836 207.636 6.08396 207.636 16.4898C207.636 20.475 205.717 24.3126 200.92 26.4528C206.972 28.2978 209.186 34.7184 209.186 37.9656C209.186 49.4784 200.551 53.1684 189.85 53.1684C181.658 53.1684 173.54 53.1684 165.349 53.1684V1.50836C173.467 1.50836 181.658 1.50836 189.85 1.50836Z" fill="white"></path>
<path d="M60.2588 1.50836H70.0004V44.1648H96.5684V53.1684H60.2588V1.50836Z" fill="white"></path>
<path d="M46.494 7.92895L40.4424 14.1281C36.9738 10.8072 31.8078 8.96215 27.306 8.96215C16.236 8.96215 9.5202 17.3754 9.5202 28.0026C9.5202 36.4896 14.4648 45.2718 27.306 45.2718C31.365 45.2718 34.9074 44.3862 38.9664 41.139V31.9878H25.7562V23.2794H47.8962V45.0504C42.804 50.8806 36.3834 54.3492 27.306 54.3492C7.8966 54.3492 0 41.5818 0 28.0026C0 13.4639 9.0774 0.0323486 27.306 0.0323486C34.2432 0.0323486 41.1804 2.68915 46.494 7.92895Z" fill="white"></path>
<path d="M127.386 0.168335C112.497 0.168335 100.45 12.4548 100.45 27.6271C100.45 42.7994 112.497 55.0646 127.386 55.0646C142.275 55.0646 154.322 42.7782 154.322 27.6271C154.322 12.476 142.254 0.168335 127.386 0.168335ZM138.712 32.7836C138.479 32.8897 138.352 33.1655 138.436 33.4202L141.045 40.7411C141.194 41.1655 140.791 41.5475 140.366 41.3989L133.176 38.704C132.922 38.5979 132.646 38.704 132.519 38.9798L127.832 49.1442C127.641 49.5474 127.068 49.5474 126.898 49.1442L122.19 38.9798C122.084 38.7252 121.787 38.6191 121.532 38.704L114.279 41.3777C113.876 41.5262 113.452 41.1231 113.621 40.7199L116.251 33.4202C116.336 33.1655 116.23 32.8897 115.976 32.7624L105.837 28.0727C105.434 27.8817 105.434 27.3088 105.837 27.139L115.976 22.4494C116.23 22.3433 116.336 22.0462 116.251 21.7916L113.536 14.5768C113.388 14.1736 113.77 13.7492 114.194 13.8977L121.554 16.5078C121.808 16.5927 122.084 16.4866 122.19 16.2319L126.877 6.08873C127.068 5.68555 127.641 5.68555 127.81 6.08873L132.498 16.2319C132.604 16.4866 132.901 16.5927 133.155 16.5078L140.43 13.8765C140.854 13.728 141.236 14.1311 141.088 14.5343L138.415 21.7916C138.33 22.0462 138.436 22.3221 138.691 22.4494L148.871 27.1603C149.274 27.3512 149.274 27.9242 148.871 28.0939L138.712 32.7836Z" fill="white"></path>
</svg>