<svg xmlns="http://www.w3.org/2000/svg" width="13.671" height="15.338" viewBox="0 0 13.671 15.338" fill="none">
  <path d="M 6.836 0 C 3.06 0 0 3.06 0 6.836 C 0 8.889 1.07 10.675 2.26 12.036 C 3.459 13.407 4.859 14.436 5.692 14.991 C 6.388 15.454 7.283 15.454 7.979 14.991 C 8.812 14.436 10.212 13.407 11.411 12.036 C 12.601 10.675 13.671 8.889 13.671 6.836 C 13.671 3.06 10.611 0 6.836 0 Z M 6.836 3.798 C 5.158 3.798 3.798 5.158 3.798 6.836 C 3.798 8.513 5.158 9.874 6.836 9.874 C 8.513 9.874 9.874 8.513 9.874 6.836 C 9.874 5.158 8.513 3.798 6.836 3.798 Z" fill="currentColor" fill-rule="evenodd"></path>
</svg>